#!OML:ASF H:\Dans Jumps\Project 1\Capture day 1\Session 1\subject.ASF
:FULLY-SPECIFIED
:DEGREES
367
root 0.620646 17.7576 7.27832 8.8922 -4.59713 -0.875418
lowerback 0.0197569 -0.134055 -2.255
upperback 3.83374 -0.170369 1.14656
thorax 3.94801 -0.183388 2.44087
lowerneck -11.9482 1.21554 -1.37022
upperneck 33.4339 1.59616 1.45223
head 13.1563 0.69632 1.03535
rclavicle 1.61637e-014 -7.85199e-015
rhumerus -31.185 -17.933 -75.0834
rradius 21.7177
rwrist 45.9868
rhand -13.8577 -25.5449
rfingers 7.12502
rthumb 12.2663 -55.1651
lclavicle 1.61637e-014 -7.85199e-015
lhumerus -22.2969 6.57722 80.0032
lradius 16.1882
lwrist 3.58251
lhand -28.0884 -6.87367
lfingers 7.12502
lthumb -1.47126 23.101
rfemur -14.7795 0.997501 17.6809
rtibia 21.1186
rfoot -12.366 -0.851468
rtoes 13.1061
lfemur -14.3957 8.16443 -19.2649
ltibia 20.2259
lfoot -9.55931 4.55495
ltoes -1.92192
368
root 0.620573 17.7645 7.2957 8.97048 -4.55182 -0.922023
lowerback -0.0553019 -0.129901 -2.17083
upperback 3.83274 -0.165804 1.16341
thorax 3.98873 -0.179119 2.41112
lowerneck -11.9398 1.20252 -1.40146
upperneck 33.4918 1.58562 1.45269
head 13.1793 0.68757 1.04031
rclavicle 5.28022e-015 -4.96962e-016
rhumerus -31.2902 -18.2717 -75.0093
rradius 21.4477
rwrist 46.1547
rhand -13.6234 -25.4858
rfingers 7.12502
rthumb 12.4923 -55.0924
lclavicle 5.28022e-015 -4.96962e-016
lhumerus -22.2992 6.26402 80.2999
lradius 16.3416
lwrist 3.73686
lhand -27.9366 -6.93944
lfingers 7.12502
lthumb -1.32465 23.0362
rfemur -14.7072 0.935428 17.7321
rtibia 20.9424
rfoot -12.2844 -0.806878
rtoes 13.1938
lfemur -14.3766 8.13914 -19.2172
ltibia 20.1341
lfoot -9.53146 4.51767
ltoes -1.76763
369
root 0.620406 17.7717 7.31216 9.05502 -4.50451 -0.976404
lowerback -0.134009 -0.122868 -2.07068
upperback 3.8254 -0.1579 1.18111
thorax 4.02465 -0.172495 2.37339
lowerneck -11.9242 1.18767 -1.42961
upperneck 33.5419 1.57456 1.44444
head 13.1975 0.677957 1.04107
rclavicle -2.39784e-015 1.73937e-015
rhumerus -31.4027 -18.5274 -74.9708
rradius 21.2298
rwrist 46.2606
rhand -13.4044 -25.4472
rfingers 7.12502
rthumb 12.7034 -55.0408
lclavicle -2.39784e-015 1.73937e-015
lhumerus -22.3168 5.90862 80.6121
lradius 16.5054
lwrist 3.97331
lhand -27.7479 -6.95916
lfingers 7.12502
lthumb -1.14241 23.0175
rfemur -14.6436 0.889861 17.7881
rtibia 20.7654
rfoot -12.1915 -0.765809
rtoes 13.3021
lfemur -14.3701 8.13579 -19.1604
ltibia 20.0469
lfoot -9.51008 4.44754
ltoes -1.60298
370
root 0.620299 17.7789 7.32819 9.14378 -4.46162 -1.01593
lowerback -0.221816 -0.113797 -1.97692
upperback 3.8142 -0.146943 1.19261
thorax 4.06159 -0.164392 2.33297
lowerneck -11.9118 1.1736 -1.45235
upperneck 33.5877 1.56646 1.42706
head 13.2148 0.669188 1.0377
rclavicle 1.05356e-014 -3.23025e-015
rhumerus -31.5145 -18.7107 -74.9682
rradius 21.0581
rwrist 46.3163
rhand -13.2072 -25.4155
rfingers 7.12502
rthumb 12.8935 -54.9972
lclavicle 1.05356e-014 -3.23025e-015
lhumerus -22.3418 5.53508 80.9313
lradius 16.674
lwrist 4.26698
lhand -27.5738 -7.02028
lfingers 7.12502
lthumb -0.974275 22.9572
rfemur -14.5929 0.848126 17.8242
rtibia 20.599
rfoot -12.1013 -0.717619
rtoes 13.4251
lfemur -14.3667 8.15326 -19.1211
ltibia 19.9547
lfoot -9.49773 4.35286
ltoes -1.43605
371
root 0.620182 17.7856 7.34393 9.23793 -4.42794 -1.04646
lowerback -0.320501 -0.101776 -1.8846
upperback 3.7985 -0.131814 1.19786
thorax 4.09983 -0.154086 2.28709
lowerneck -11.9001 1.16234 -1.46752
upperneck 33.6269 1.56316 1.40202
head 13.2294 0.662551 1.03059
rclavicle -1.23495e-014 6.26172e-015
rhumerus -31.6242 -18.8237 -75.0041
rradius 20.9313
rwrist 46.3268
rhand -13.0323 -25.3973
rfingers 7.12502
rthumb 13.062 -54.9683
lclavicle -1.23495e-014 6.26172e-015
lhumerus -22.3778 5.15738 81.2503
lradius 16.8526
lwrist 4.5899
lhand -27.3627 -6.96186
lfingers 7.12502
lthumb -0.770418 23.0165
rfemur -14.5601 0.805131 17.8488
rtibia 20.4516
rfoot -12.0235 -0.658052
rtoes 13.5527
lfemur -14.3626 8.18324 -19.0922
ltibia 19.8516
lfoot -9.49255 4.25055
ltoes -1.27392
372
root 0.62025 17.7915 7.35925 9.33788 -4.40213 -1.06158
lowerback -0.428433 -0.0891431 -1.80183
upperback 3.77805 -0.115471 1.19738
thorax 4.1384 -0.143326 2.24072
lowerneck -11.8964 1.15513 -1.47669
upperneck 33.6633 1.5663 1.37136
head 13.2447 0.658767 1.0212
rclavicle -6.4605e-016 -1.55052e-014
rhumerus -31.7225 -18.8545 -75.0787
rradius 20.8389
rwrist 46.2725
rhand -12.8818 -25.3764
rfingers 7.12502
rthumb 13.2071 -54.938
lclavicle -6.4605e-016 -1.55052e-014
lhumerus -22.4265 4.76741 81.5736
lradius 17.0373
lwrist 4.93671
lhand -27.1367 -6.83872
lfingers 7.12502
lthumb -0.552103 23.1403
rfemur -14.5479 0.749891 17.8554
rtibia 20.326
rfoot -11.9671 -0.583439
rtoes 13.6938
lfemur -14.3589 8.2193 -19.0825
ltibia 19.7382
lfoot -9.49771 4.14904
ltoes -1.11974
373
root 0.620291 17.7962 7.37371 9.43982 -4.38032 -1.07219
lowerback -0.536395 -0.0765409 -1.72162
upperback 3.75307 -0.0992172 1.19514
thorax 4.17235 -0.132553 2.19402
lowerneck -11.896 1.15122 -1.48114
upperneck 33.6945 1.57438 1.33688
head 13.2584 0.657278 1.01015
rclavicle -1.39398e-014 -4.96962e-015
rhumerus -31.8109 -18.8007 -75.1908
rradius 20.779
rwrist 46.1401
rhand -12.7643 -25.344
rfingers 7.12502
rthumb 13.3204 -54.8983
lclavicle -1.39398e-014 -4.96962e-015
lhumerus -22.4852 4.35929 81.9018
lradius 17.2248
lwrist 5.30977
lhand -26.9026 -6.67224
lfingers 7.12502
lthumb -0.32606 23.3073
rfemur -14.5503 0.687726 17.8587
rtibia 20.2189
rfoot -11.9357 -0.504182
rtoes 13.8626
lfemur -14.3569 8.25331 -19.0781
ltibia 19.6211
lfoot -9.51467 4.05894
ltoes -0.983325
374
root 0.620257 17.7994 7.38705 9.54597 -4.35218 -1.08362
lowerback -0.641173 -0.0674311 -1.64172
upperback 3.72066 -0.0879221 1.19581
thorax 4.19709 -0.124133 2.15031
lowerneck -11.8956 1.14978 -1.48678
upperneck 33.72 1.5863 1.3027
head 13.2696 0.657401 0.99988
rclavicle -2.70844e-015 -5.06901e-015
rhumerus -31.8922 -18.6623 -75.3336
rradius 20.7477
rwrist 45.9312
rhand -12.6912 -25.2975
rfingers 7.12502
rthumb 13.3908 -54.8471
lclavicle -2.70844e-015 -5.06901e-015
lhumerus -22.5623 3.95196 82.2302
lradius 17.4136
lwrist 5.68234
lhand -26.6573 -6.5513
lfingers 7.12502
lthumb -0.0891309 23.4284
rfemur -14.5648 0.617017 17.8665
rtibia 20.1235
rfoot -11.9298 -0.433676
rtoes 14.0336
lfemur -14.3655 8.27611 -19.0727
ltibia 19.5085
lfoot -9.5444 3.98256
ltoes -0.855252
375
root 0.62007 17.8009 7.39933 9.64872 -4.3126 -1.08731
lowerback -0.738806 -0.0647037 -1.57198
upperback 3.68511 -0.0851538 1.19843
thorax 4.21502 -0.120246 2.11398
lowerneck -11.8941 1.15097 -1.49801
upperneck 33.7362 1.60176 1.27358
head 13.2763 0.659091 0.992941
rclavicle -7.20594e-016 1.0138e-014
rhumerus -31.9572 -18.4523 -75.5017
rradius 20.7381
rwrist 45.6551
rhand -12.6348 -25.2449
rfingers 7.12502
rthumb 13.4453 -54.7909
lclavicle -7.20594e-016 1.0138e-014
lhumerus -22.6525 3.55251 82.5592
lradius 17.6074
lwrist 6.04753
lhand -26.4019 -6.39756
lfingers 7.12502
lthumb 0.157542 23.5821
rfemur -14.5772 0.532729 17.8714
rtibia 20.0309
rfoot -11.9502 -0.377575
rtoes 14.1916
lfemur -14.3829 8.30133 -19.0759
ltibia 19.4103
lfoot -9.59835 3.90463
ltoes -0.719829
376
root 0.619718 17.8004 7.4108 9.74233 -4.25595 -1.0949
lowerback -0.827909 -0.0683875 -1.49906
upperback 3.64988 -0.0914497 1.20609
thorax 4.22892 -0.120825 2.08066
lowerneck -11.8932 1.15337 -1.51673
upperneck 33.7459 1.61849 1.25172
head 13.2802 0.661401 0.990267
rclavicle -4.42296e-015 1.78906e-015
rhumerus -32.0057 -18.1817 -75.6904
rradius 20.7512
rwrist 45.3261
rhand -12.5972 -25.1796
rfingers 7.12502
rthumb 13.4814 -54.7232
lclavicle -4.42296e-015 1.78906e-015
lhumerus -22.7465 3.16456 82.8872
lradius 17.793
lwrist 6.38923
lhand -26.1629 -6.28497
lfingers 7.12502
lthumb 0.388398 23.6944
rfemur -14.5733 0.43854 17.8868
rtibia 19.9332
rfoot -11.9971 -0.342919
rtoes 14.3506
lfemur -14.4041 8.33519 -19.0743
ltibia 19.3317
lfoot -9.68025 3.8179
ltoes -0.574025
377
root 0.619089 17.7979 7.4216 9.82445 -4.18304 -1.10709
lowerback -0.907932 -0.076958 -1.42149
upperback 3.61455 -0.104777 1.21777
thorax 4.23788 -0.124779 2.04853
lowerneck -11.8798 1.15528 -1.54595
upperneck 33.7421 1.6327 1.24252
head 13.2752 0.663085 0.993715
rclavicle -1.06101e-014 -1.49089e-015
rhumerus -32.0442 -17.8711 -75.8905
rradius 20.7885
rwrist 44.9659
rhand -12.5567 -25.1212
rfingers 7.12502
rthumb 13.5205 -54.6623
lclavicle -1.06101e-014 -1.49089e-015
lhumerus -22.8393 2.78102 83.2132
lradius 17.9674
lwrist 6.71334
lhand -25.9339 -6.16811
lfingers 7.12502
lthumb 0.609551 23.8108
rfemur -14.5471 0.34171 17.9143
rtibia 19.8229
rfoot -12.0645 -0.340037
rtoes 14.4739
lfemur -14.4279 8.38754 -19.0681
ltibia 19.2745
lfoot -9.79231 3.71761
ltoes -0.426769
378
root 0.618276 17.7935 7.43188 9.89033 -4.09615 -1.12214
lowerback -0.976339 -0.0897313 -1.34007
upperback 3.58111 -0.124174 1.23241
thorax 4.24247 -0.131664 2.017
lowerneck -11.857 1.15643 -1.58528
upperneck 33.7304 1.64433 1.24484
head 13.2645 0.663966 1.00287
rclavicle -1.19519e-014 -1.20265e-014
rhumerus -32.0726 -17.5396 -76.0939
rradius 20.8446
rwrist 44.5922
rhand -12.512 -25.0644
rfingers 7.12502
rthumb 13.5636 -54.6026
lclavicle -1.19519e-014 -1.20265e-014
lhumerus -22.9245 2.38998 83.5395
lradius 18.1218
lwrist 7.02417
lhand -25.748 -6.0675
lfingers 7.12502
lthumb 0.789165 23.9108
rfemur -14.491 0.243823 17.9517
rtibia 19.6968
rfoot -12.1516 -0.369877
rtoes 14.5564
lfemur -14.4464 8.46201 -19.06
ltibia 19.2351
lfoot -9.93222 3.60324
ltoes -0.288451
379
root 0.617059 17.7876 7.44166 9.93784 -3.99784 -1.14636
lowerback -1.02887 -0.103961 -1.24832
upperback 3.54906 -0.146164 1.24932
thorax 4.23954 -0.139489 1.98184
lowerneck -11.8234 1.15623 -1.62954
upperneck 33.7149 1.65161 1.25723
head 13.2497 0.663708 1.01604
rclavicle -4.96962e-017 -1.09332e-015
rhumerus -32.0955 -17.2096 -76.2957
rradius 20.9203
rwrist 44.2251
rhand -12.4604 -25.0292
rfingers 7.12502
rthumb 13.6133 -54.5641
lclavicle -4.96962e-017 -1.09332e-015
lhumerus -22.9934 1.9967 83.8612
lradius 18.2477
lwrist 7.31407
lhand -25.5907 -5.92357
lfingers 7.12502
lthumb 0.941056 24.0541
rfemur -14.4054 0.156545 18.0071
rtibia 19.5583
rfoot -12.257 -0.443126
rtoes 14.5883
lfemur -14.4503 8.54773 -19.0406
ltibia 19.2018
lfoot -10.0888 3.48684
ltoes -0.157812
